# xmcd
#
# Track frame offsets:
#	150
#	13488
#	27430
#	39481
#	53632
#	65425
#	77638
#	92800
#	106365
#	119998
#	133168
#	146044
#	157743
#	170788
#	184542
#	197100
#	209764
#	223825
#	236234
#	249995
#	263507
#	275704
#	285805
#	298741
#	308773
#	322002
#	335437
#
# Disc length: 4647 seconds
#
# Revision: 1
# Processed by: cddbd v1.5.2PL0 Copyright (c) Steve Scherf et al.
# Submitted via: audiograbber 1.83.01
#
DISCID=a812251b
DTITLE=Various Artits - Big Box Of Blues - Cd3
DYEAR=1900
DGENRE=Blues
TTITLE0=Howlin' Wolf -  Evil
TTITLE1=Cecil Gant -  Lost Baby Blues
TTITLE2=Wynonie Harris - Drinkin' By Myself 
TTITLE3=Otis Rush  -  Can't Quit You Baby 
TTITLE4=Cecil Gant  -  Anna Mae 
TTITLE5=Junior Wells - Two-Headed Woman 
TTITLE6=Willie Dixon  - Pain in My Heart 
TTITLE7=Amos Milburn  - After Midnite 
TTITLE8=Amos Milburn  - Down the Road Apiece 
TTITLE9=Jimmy Reed  - You Got Me Dizzy 
TTITLE10=Wynonie Harris -  In the Evenin' Blues 
TTITLE11=Jimmy Binkley  -  Wine Wine Wine 
TTITLE12=Willie Dixon  -  Crazy for My Baby 
TTITLE13=Guitar Slim  - The Things That I Used to Do  
TTITLE14=Jimmy Witherspoon  -  Money's Getting Cheaper 
TTITLE15=Bo Diddley  - Bo Diddley 
TTITLE16=Jimmy Reed  -  You Don't Have to Go 
TTITLE17=Brownie McGhee  -  So Much Trouble 
TTITLE18=Slim Harpo  -  I'm a King Bee 
TTITLE19=Wynonie Harris  -  Oh Babe 
TTITLE20=Wynonie Harris  -  Rose Get Your Clothes 
TTITLE21=John Lee Hooker  -  John Lee Hooker 
TTITLE22=Sonny Boy Williamson II  -  Keep It to Yourself 
TTITLE23=Champion Jack Dupree  -  Me and My Mule 
TTITLE24=Lowell Fulson -  Trouble, Trouble 
TTITLE25=Percy Mayfield  - Are You Out There 
TTITLE26=Jimmy Witherspoon -  Skid Row Blues 
EXTD=
EXTT0=
EXTT1=
EXTT2=
EXTT3=
EXTT4=
EXTT5=
EXTT6=
EXTT7=
EXTT8=
EXTT9=
EXTT10=
EXTT11=
EXTT12=
EXTT13=
EXTT14=
EXTT15=
EXTT16=
EXTT17=
EXTT18=
EXTT19=
EXTT20=
EXTT21=
EXTT22=
EXTT23=
EXTT24=
EXTT25=
EXTT26=
PLAYORDER=
